<?xml version="1.0" encoding="UTF-8" standalone="no"?>
<!-- Created with Inkscape (http://www.inkscape.org/) -->

<svg
   xmlns:dc="http://purl.org/dc/elements/1.1/"
   xmlns:cc="http://creativecommons.org/ns#"
   xmlns:rdf="http://www.w3.org/1999/02/22-rdf-syntax-ns#"
   xmlns:svg="http://www.w3.org/2000/svg"
   xmlns="http://www.w3.org/2000/svg"
   xmlns:sodipodi="http://sodipodi.sourceforge.net/DTD/sodipodi-0.dtd"
   xmlns:inkscape="http://www.inkscape.org/namespaces/inkscape"
   id="svg4754"
   version="1.1"
   inkscape:version="0.91 r13725"
   width="24"
   height="24"
   viewBox="0 0 24 24"
   sodipodi:docname="weather-lightning.svg"
   inkscape:export-filename="/home/klange/Projects/toaruos-ldiso/hdd/usr/share/icons/weather/11d.png"
   inkscape:export-xdpi="90"
   inkscape:export-ydpi="90">
  <metadata
     id="metadata4760">
    <rdf:RDF>
      <cc:Work
         rdf:about="">
        <dc:format>image/svg+xml</dc:format>
        <dc:type
           rdf:resource="http://purl.org/dc/dcmitype/StillImage" />
        <dc:title></dc:title>
      </cc:Work>
    </rdf:RDF>
  </metadata>
  <defs
     id="defs4758" />
  <sodipodi:namedview
     pagecolor="#ffffff"
     bordercolor="#666666"
     borderopacity="1"
     objecttolerance="10"
     gridtolerance="10"
     guidetolerance="10"
     inkscape:pageopacity="0"
     inkscape:pageshadow="2"
     inkscape:window-width="1920"
     inkscape:window-height="1032"
     id="namedview4756"
     showgrid="true"
     showguides="false"
     inkscape:snap-bbox="true"
     inkscape:bbox-nodes="true"
     inkscape:object-nodes="true"
     inkscape:zoom="22.627417"
     inkscape:cx="14.921167"
     inkscape:cy="12.429002"
     inkscape:window-x="1920"
     inkscape:window-y="24"
     inkscape:window-maximized="1"
     inkscape:current-layer="svg4754">
    <inkscape:grid
       type="xygrid"
       id="grid4764"
       units="px"
       spacingx="1"
       spacingy="1"
       empspacing="8"
       snapvisiblegridlinesonly="false" />
  </sodipodi:namedview>
  <path
     style="color:#000000;clip-rule:nonzero;display:inline;overflow:visible;visibility:visible;opacity:1;isolation:auto;mix-blend-mode:normal;color-interpolation:sRGB;color-interpolation-filters:linearRGB;solid-color:#000000;solid-opacity:1;fill:#0000ff;fill-opacity:1;fill-rule:evenodd;stroke:none;stroke-width:3;stroke-linecap:round;stroke-linejoin:round;stroke-miterlimit:4;stroke-dasharray:none;stroke-dashoffset:0;stroke-opacity:1;marker:none;color-rendering:auto;image-rendering:auto;shape-rendering:auto;text-rendering:auto;enable-background:accumulate"
     d="M 10.989355,3.176779 C 9.350554,3.179379 7.890905,4.213517 7.344806,5.758657 7.209742,5.739847 7.073633,5.729517 6.937277,5.727707 5.130785,5.727186 3.666204,7.191767 3.666726,8.998258 c -5.22e-4,1.806491 1.464059,3.271072 3.270551,3.27055 0.497309,-0.0013 0.987782,-0.115935 1.434091,-0.335308 0.713189,0.658162 1.647517,1.02453 2.617987,1.026561 1.044807,-0.0016 1.836641,-0.310177 2.550927,-1.028356 2.452111,0 1.494737,0.01469 3.332454,0.01469 1.805485,5.28e-4 3.26965,-1.462481 3.270552,-3.267966 C 20.142188,7.261762 19.228968,6.006935 17.881242,5.570374 17.337765,4.438352 16.193985,3.7176 14.938263,3.715858 14.424701,3.715941 13.918382,3.836997 13.460324,4.069222 12.765833,3.492881 11.891843,3.177223 10.989355,3.176785 Z"
     id="path5657"
     inkscape:connector-curvature="0"
     sodipodi:nodetypes="cccccccccccccc" />
  <path
     style="color:#000000;display:inline;overflow:visible;visibility:visible;fill:#0000ff;fill-opacity:1;fill-rule:evenodd;stroke:#0000ff;stroke-width:0.27586567;stroke-linecap:round;stroke-linejoin:round;stroke-miterlimit:4;stroke-dasharray:none;stroke-dashoffset:0;stroke-opacity:1;marker:none;enable-background:accumulate"
     d="m 17,13 -1.655194,2.758657 1.655194,0 -1.103462,1.655194 0.55173,0 -2.758656,3.310388 0.551732,-2.758656 -0.551732,0 0.551732,-1.655194 -0.551732,0 0,-3.310389 z"
     id="path4305"
     inkscape:connector-curvature="0"
     sodipodi:nodetypes="cccccccccccc" />
  <path
     sodipodi:nodetypes="cccccccccccc"
     inkscape:connector-curvature="0"
     id="path4878"
     d="m 12,14 -1.655194,2.758657 1.655194,0 -1.103462,1.655194 0.55173,0 -2.758656,3.310388 0.551732,-2.758656 -0.551732,0 0.551732,-1.655194 -0.551732,0 0,-3.310389 z"
     style="color:#000000;display:inline;overflow:visible;visibility:visible;fill:#0000ff;fill-opacity:1;fill-rule:evenodd;stroke:#0000ff;stroke-width:0.27586567;stroke-linecap:round;stroke-linejoin:round;stroke-miterlimit:4;stroke-dasharray:none;stroke-dashoffset:0;stroke-opacity:1;marker:none;enable-background:accumulate" />
</svg>
