<?xml version="1.0" encoding="UTF-8" standalone="no"?>
<!-- Created with Inkscape (http://www.inkscape.org/) -->

<svg
   xmlns:dc="http://purl.org/dc/elements/1.1/"
   xmlns:cc="http://creativecommons.org/ns#"
   xmlns:rdf="http://www.w3.org/1999/02/22-rdf-syntax-ns#"
   xmlns:svg="http://www.w3.org/2000/svg"
   xmlns="http://www.w3.org/2000/svg"
   xmlns:sodipodi="http://sodipodi.sourceforge.net/DTD/sodipodi-0.dtd"
   xmlns:inkscape="http://www.inkscape.org/namespaces/inkscape"
   id="svg4754"
   version="1.1"
   inkscape:version="0.91 r13725"
   width="24"
   height="24"
   viewBox="0 0 24 24"
   sodipodi:docname="weather-sun-cloud.svg"
   inkscape:export-filename="/home/klange/Projects/toaruos-ldiso/hdd/usr/share/icons/weather/02d.png"
   inkscape:export-xdpi="90"
   inkscape:export-ydpi="90">
  <metadata
     id="metadata4760">
    <rdf:RDF>
      <cc:Work
         rdf:about="">
        <dc:format>image/svg+xml</dc:format>
        <dc:type
           rdf:resource="http://purl.org/dc/dcmitype/StillImage" />
        <dc:title />
      </cc:Work>
    </rdf:RDF>
  </metadata>
  <defs
     id="defs4758" />
  <sodipodi:namedview
     pagecolor="#ffffff"
     bordercolor="#666666"
     borderopacity="1"
     objecttolerance="10"
     gridtolerance="10"
     guidetolerance="10"
     inkscape:pageopacity="0"
     inkscape:pageshadow="2"
     inkscape:window-width="1916"
     inkscape:window-height="1030"
     id="namedview4756"
     showgrid="true"
     showguides="false"
     inkscape:snap-bbox="true"
     inkscape:bbox-nodes="true"
     inkscape:object-nodes="true"
     inkscape:zoom="16"
     inkscape:cx="9.702626"
     inkscape:cy="11.161325"
     inkscape:window-x="1920"
     inkscape:window-y="24"
     inkscape:window-maximized="0"
     inkscape:current-layer="svg4754">
    <inkscape:grid
       type="xygrid"
       id="grid4764"
       units="px"
       spacingx="1"
       spacingy="1"
       empspacing="8"
       snapvisiblegridlinesonly="false" />
  </sodipodi:namedview>
  <path
     style="color:#000000;clip-rule:nonzero;display:inline;overflow:visible;visibility:visible;opacity:1;isolation:auto;mix-blend-mode:normal;color-interpolation:sRGB;color-interpolation-filters:linearRGB;solid-color:#000000;solid-opacity:1;fill:#0000ff;fill-opacity:1;fill-rule:evenodd;stroke:none;stroke-width:3;stroke-linecap:round;stroke-linejoin:round;stroke-miterlimit:4;stroke-dasharray:none;stroke-dashoffset:0;stroke-opacity:1;marker:none;color-rendering:auto;image-rendering:auto;shape-rendering:auto;text-rendering:auto;enable-background:accumulate"
     d="M 10.751953,3 C 10.719735,3 9.449748,4.0044626 9.417969,4.0097656 9.38619,4.0150686 7.8605508,3.4778199 7.830078,3.4882812 7.7996052,3.4987426 6.9248195,4.8616188 6.8964842,4.8769531 c -0.028335,0.015334 -1.6464501,0.0017 -1.671875,0.021484 -0.025425,0.019789 -0.4098196,1.5915305 -0.4316406,1.6152344 -0.021821,0.023704 -1.55855,0.5374809 -1.5761718,0.5644531 -0.017622,0.026972 0.1301295,1.6384639 0.1171874,1.6679688 -0.012942,0.029505 -1.2987314,1.0136892 -1.3066406,1.0449218 -0.00791,0.031233 0.6550044,1.5089074 0.6523438,1.5410154 -0.00266,0.03211 -0.899145,1.380001 -0.8964844,1.41211 0.00266,0.03211 1.1092783,1.212908 1.1171875,1.24414 0.00791,0.03123 -0.403567,1.597449 -0.390625,1.626953 0.012942,0.02951 1.4433157,0.787481 1.4609375,0.814454 0.017622,0.02697 0.1383353,1.642311 0.1601562,1.666015 0.00466,0.0051 0.2338399,0.04105 0.3515626,0.0625 -0.00383,-0.0779 -0.02346,-0.151681 -0.023438,-0.230469 3.137e-4,-2.438244 1.8932762,-4.400465 4.265625,-4.666015 0.9547658,-1.596617 2.6465378,-2.651297 4.5546878,-2.654297 a 1.50015,1.50015 0 0 0 0.002,0 c 0.975567,4.73e-4 1.890115,0.338122 2.71875,0.833984 0.409574,-0.112375 0.802928,-0.294853 1.230469,-0.294922 a 1.50015,1.50015 0 0 0 0.002,0 c 0.600054,8.33e-4 1.170594,0.129072 1.697265,0.353516 -0.02247,-0.03642 -0.105153,-0.164161 -0.105468,-0.167969 -0.0027,-0.03211 0.660253,-1.5097828 0.652343,-1.5410154 -0.0079,-0.031233 -1.293698,-1.015417 -1.30664,-1.0449218 C 18.15698,8.7165889 18.304731,7.1050972 18.287109,7.078125 18.269487,7.0511528 16.732758,6.5373758 16.710937,6.5136719 16.689116,6.489968 16.304722,4.9182265 16.279297,4.8984375 16.253872,4.8786485 14.635757,4.8922874 14.607422,4.8769531 14.579086,4.8616188 13.704301,3.4987426 13.673828,3.4882812 13.643355,3.4778199 12.117716,4.0150686 12.085937,4.0097656 12.054158,4.0044626 10.784171,3 10.751953,3 Z m 2.527344,10.607422 c -1.00756,0.0032 -1.892619,0.631639 -2.228516,1.582031 a 1.50015,1.50015 0 0 1 -1.621094,0.986328 c -0.067827,-0.0094 -0.136488,-0.01412 -0.205078,-0.01563 -0.9932213,0.0022 -1.7659117,0.77365 -1.7656248,1.767578 a 1.50015,1.50015 0 0 0 0,0.002 c -2.872e-4,0.994861 0.7730106,1.768786 1.7675778,1.769531 l 0.00195,0 c 0.268059,-0.0013 0.533064,-0.06349 0.773438,-0.181641 a 1.50015,1.50015 0 0 1 1.677734,0.244141 c 0.305196,0.281647 0.677906,0.468473 1.076172,0.560547 0.302039,-0.32627 0.61036,-0.656413 0.626953,-0.66211 0.02432,-0.0083 0.892674,0.141183 1.31836,0.205078 0.02329,-0.02254 0.0421,-0.03611 0.06641,-0.06055 a 1.50015,1.50015 0 0 1 0.460937,-0.314454 c 0.197124,-0.438684 0.479729,-1.083398 0.498047,-1.097656 0.02543,-0.01979 1.624664,-0.273171 1.646485,-0.296875 0.02182,-0.0237 0.142534,-1.639043 0.160156,-1.666015 0.01762,-0.02697 1.447995,-0.784949 1.460938,-0.814454 0.0023,-0.0052 -0.04914,-0.202128 -0.06836,-0.285156 a 1.50015,1.50015 0 0 1 -0.105469,-0.179687 c -0.295608,-0.61573 -0.908782,-1.002959 -1.591797,-1.003907 -0.277341,3.47e-4 -0.551448,0.06599 -0.798828,0.191407 A 1.50015,1.50015 0 0 1 14.794922,14.154297 C 14.369707,13.801422 13.833771,13.608129 13.28125,13.607422 l -0.002,0 z"
     id="path5655"
     inkscape:connector-curvature="0" />
  <path
     style="color:#000000;clip-rule:nonzero;display:inline;overflow:visible;visibility:visible;opacity:1;isolation:auto;mix-blend-mode:normal;color-interpolation:sRGB;color-interpolation-filters:linearRGB;solid-color:#000000;solid-opacity:1;fill:#0000ff;fill-opacity:1;fill-rule:evenodd;stroke:none;stroke-width:3;stroke-linecap:round;stroke-linejoin:round;stroke-miterlimit:4;stroke-dasharray:none;stroke-dashoffset:0;stroke-opacity:1;marker:none;color-rendering:auto;image-rendering:auto;shape-rendering:auto;text-rendering:auto;enable-background:accumulate"
     d="m 13.280984,12.107557 c -1.638801,0.0026 -3.09845,1.036738 -3.644549,2.581878 -0.135064,-0.01881 -0.271173,-0.02914 -0.407529,-0.03095 -1.8064916,-5.21e-4 -3.2710726,1.46406 -3.270551,3.270551 -5.216e-4,1.806491 1.4640594,3.271072 3.270551,3.27055 0.497309,-0.0013 0.987782,-0.115935 1.434091,-0.335308 0.713189,0.658162 1.647517,1.02453 2.617987,1.026561 1.044807,-0.0016 1.836641,-0.310177 2.550927,-1.028356 2.452111,0 1.494737,0.01469 3.332454,0.01469 1.805485,5.28e-4 3.26965,-1.462481 3.270552,-3.267966 -0.0011,-1.416667 -0.91432,-2.671494 -2.262046,-3.108055 C 19.629394,13.36913 18.485614,12.648378 17.229892,12.646636 16.71633,12.646719 16.210011,12.767775 15.751953,13 15.057462,12.423659 14.183472,12.108001 13.280984,12.107563 Z"
     id="path5657"
     inkscape:connector-curvature="0"
     sodipodi:nodetypes="cccccccccccccc" />
</svg>
