<?xml version="1.0" encoding="UTF-8" standalone="no"?>
<!-- Created with Inkscape (http://www.inkscape.org/) -->

<svg
   xmlns:dc="http://purl.org/dc/elements/1.1/"
   xmlns:cc="http://creativecommons.org/ns#"
   xmlns:rdf="http://www.w3.org/1999/02/22-rdf-syntax-ns#"
   xmlns:svg="http://www.w3.org/2000/svg"
   xmlns="http://www.w3.org/2000/svg"
   xmlns:sodipodi="http://sodipodi.sourceforge.net/DTD/sodipodi-0.dtd"
   xmlns:inkscape="http://www.inkscape.org/namespaces/inkscape"
   id="svg4754"
   version="1.1"
   inkscape:version="0.91 r13725"
   width="24"
   height="24"
   viewBox="0 0 24 24"
   sodipodi:docname="weather-moon-big-cloud.svg"
   inkscape:export-filename="/home/klange/Projects/toaruos-ldiso/hdd/usr/share/icons/weather/04n.png"
   inkscape:export-xdpi="90"
   inkscape:export-ydpi="90">
  <metadata
     id="metadata4760">
    <rdf:RDF>
      <cc:Work
         rdf:about="">
        <dc:format>image/svg+xml</dc:format>
        <dc:type
           rdf:resource="http://purl.org/dc/dcmitype/StillImage" />
        <dc:title></dc:title>
      </cc:Work>
    </rdf:RDF>
  </metadata>
  <defs
     id="defs4758" />
  <sodipodi:namedview
     pagecolor="#ffffff"
     bordercolor="#666666"
     borderopacity="1"
     objecttolerance="10"
     gridtolerance="10"
     guidetolerance="10"
     inkscape:pageopacity="0"
     inkscape:pageshadow="2"
     inkscape:window-width="1920"
     inkscape:window-height="1056"
     id="namedview4756"
     showgrid="true"
     showguides="true"
     inkscape:snap-bbox="true"
     inkscape:bbox-nodes="true"
     inkscape:object-nodes="true"
     inkscape:zoom="25.750472"
     inkscape:cx="12.38591"
     inkscape:cy="13.448486"
     inkscape:window-x="0"
     inkscape:window-y="0"
     inkscape:window-maximized="1"
     inkscape:current-layer="svg4754">
    <inkscape:grid
       type="xygrid"
       id="grid4764"
       units="px"
       spacingx="1"
       spacingy="1"
       empspacing="8"
       snapvisiblegridlinesonly="false" />
  </sodipodi:namedview>
  <path
     style="color:#000000;clip-rule:nonzero;display:inline;overflow:visible;visibility:visible;opacity:1;isolation:auto;mix-blend-mode:normal;color-interpolation:sRGB;color-interpolation-filters:linearRGB;solid-color:#000000;solid-opacity:1;fill:#0000ff;fill-opacity:1;fill-rule:evenodd;stroke:none;stroke-width:3;stroke-linecap:round;stroke-linejoin:round;stroke-miterlimit:4;stroke-dasharray:none;stroke-dashoffset:0;stroke-opacity:1;marker:none;color-rendering:auto;image-rendering:auto;shape-rendering:auto;text-rendering:auto;enable-background:accumulate"
     d="M 12 4 A 8 8 0 0 0 11.65625 4.0117188 A 7 7 0 0 1 15.869141 9.1542969 C 15.987487 9.136611 16.106926 9.1230665 16.228516 9.1230469 A 1.50015 1.50015 0 0 1 16.232422 9.1230469 C 17.635418 9.1249932 18.891496 9.712463 19.875 10.640625 A 8 8 0 0 0 12 4 z M 16.228516 12.123047 C 16.078911 12.123178 15.931927 12.150992 15.785156 12.175781 A 7 7 0 0 1 9 17.486328 A 7 7 0 0 1 5.3652344 16.457031 A 8 8 0 0 0 12 20 A 8 8 0 0 0 13.835938 19.777344 A 1.50015 1.50015 0 0 1 14.304688 19.658203 A 8 8 0 0 0 19.605469 14.455078 C 19.582715 14.447041 19.562137 14.435209 19.539062 14.427734 A 1.50015 1.50015 0 0 1 18.648438 13.648438 C 18.199974 12.714323 17.264704 12.124447 16.228516 12.123047 z "
     id="path8002" />
  <path
     style="color:#000000;clip-rule:nonzero;display:inline;overflow:visible;visibility:visible;opacity:1;isolation:auto;mix-blend-mode:normal;color-interpolation:sRGB;color-interpolation-filters:linearRGB;solid-color:#000000;solid-opacity:1;fill:#0000ff;fill-opacity:1;fill-rule:evenodd;stroke:none;stroke-width:3;stroke-linecap:round;stroke-linejoin:round;stroke-miterlimit:4;stroke-dasharray:none;stroke-dashoffset:0;stroke-opacity:1;marker:none;color-rendering:auto;image-rendering:auto;shape-rendering:auto;text-rendering:auto;enable-background:accumulate"
     d="m 11.170136,9.9331414 c -2.0997178,0.0033 -3.9698968,1.3283226 -4.6695868,3.3080376 -0.173051,-0.0241 -0.347441,-0.03734 -0.522148,-0.03965 -2.314571,-6.68e-4 -4.191069,1.87583 -4.190401,4.190401 -6.68e-4,2.314571 1.87583,4.191069 4.190401,4.1904 0.637179,-0.0017 1.265598,-0.148542 1.837433,-0.429614 0.913775,0.843271 2.110885,1.312681 3.3543018,1.315284 1.338661,-0.0021 2.3532,-0.397415 3.268381,-1.317584 3.141773,0 1.915135,0.01882 4.269715,0.01882 2.313281,6.76e-4 4.189246,-1.873808 4.190402,-4.18709 -0.0014,-1.815107 -1.171475,-3.422858 -2.898252,-3.982202 -0.696331,-1.450406 -2.161802,-2.373871 -3.770699,-2.376103 -0.658002,1.06e-4 -1.306725,0.155209 -1.893612,0.452748 -0.889819,-0.738438 -2.00962,-1.1428756 -3.165935,-1.1434366 z"
     id="path5657"
     inkscape:connector-curvature="0"
     sodipodi:nodetypes="cccccccccccccc" />
</svg>
